<svg width="24" height="24" viewBox="0 0 24 24" fill="none" xmlns="http://www.w3.org/2000/svg">
<path d="M12.0001 14.5C11.9016 14.5004 11.8039 14.4812 11.7129 14.4434C11.6219 14.4057 11.5393 14.3501 11.4701 14.28L8.00009 10.78C7.9087 10.639 7.86728 10.4714 7.88247 10.3041C7.89765 10.1368 7.96857 9.97948 8.08385 9.85728C8.19913 9.73509 8.3521 9.65513 8.51823 9.63023C8.68437 9.60533 8.85405 9.63693 9.00009 9.71996L12.0001 12.72L15.0001 9.71996C15.1461 9.63693 15.3158 9.60533 15.482 9.63023C15.6481 9.65513 15.8011 9.73509 15.9163 9.85728C16.0316 9.97948 16.1025 10.1368 16.1177 10.3041C16.1329 10.4714 16.0915 10.639 16.0001 10.78L12.5001 14.28C12.3676 14.4144 12.1887 14.4931 12.0001 14.5Z" fill="#222222"/>
</svg>
