<svg width="26" height="26" viewBox="0 0 26 26" fill="none" xmlns="http://www.w3.org/2000/svg">
<path d="M9.73198 13.6399C9.64419 13.5395 9.57735 13.4226 9.5354 13.2961C9.49345 13.1695 9.47723 13.0358 9.48771 12.9029C9.49819 12.7699 9.53515 12.6404 9.59641 12.522C9.65767 12.4036 9.742 12.2986 9.84443 12.2132C9.94687 12.1279 10.0653 12.0638 10.1929 12.0249C10.3204 11.986 10.4545 11.973 10.5871 11.9867C10.7197 12.0004 10.8483 12.0404 10.9652 12.1045C11.0822 12.1686 11.1851 12.2554 11.268 12.3599L16.268 18.3599C16.3558 18.4602 16.4226 18.5771 16.4646 18.7037C16.5065 18.8303 16.5227 18.964 16.5123 19.0969C16.5018 19.2298 16.4648 19.3593 16.4036 19.4778C16.3423 19.5962 16.258 19.7012 16.1555 19.7865C16.0531 19.8719 15.9346 19.9359 15.8071 19.9748C15.6795 20.0137 15.5455 20.0267 15.4129 20.0131C15.2802 19.9994 15.1517 19.9593 15.0347 19.8952C14.9178 19.8312 14.8149 19.7443 14.732 19.6399L9.73198 13.6399Z" fill="black"/>
<path d="M11.268 13.6399C11.1851 13.7443 11.0822 13.8312 10.9652 13.8952C10.8483 13.9593 10.7197 13.9994 10.5871 14.0131C10.4545 14.0267 10.3204 14.0137 10.1929 13.9748C10.0653 13.9359 9.94687 13.8719 9.84443 13.7865C9.742 13.7012 9.65767 13.5962 9.59641 13.4778C9.53515 13.3593 9.49819 13.2298 9.48771 13.0969C9.47723 12.964 9.49345 12.8303 9.5354 12.7037C9.57735 12.5771 9.64419 12.4602 9.73198 12.3599L14.732 6.35988C14.8149 6.25543 14.9178 6.1686 15.0347 6.10452C15.1517 6.04043 15.2802 6.00038 15.4129 5.98671C15.5455 5.97305 15.6795 5.98605 15.8071 6.02495C15.9346 6.06385 16.0531 6.12786 16.1555 6.21322C16.258 6.29859 16.3423 6.40357 16.4036 6.52201C16.4648 6.64045 16.5018 6.76994 16.5123 6.90287C16.5227 7.0358 16.5065 7.16948 16.4646 7.29605C16.4226 7.42262 16.3558 7.53952 16.268 7.63988L11.268 13.6399Z" fill="black"/>
<path fill-rule="evenodd" clip-rule="evenodd" d="M13 24C19.075 24 24 19.075 24 13C24 6.925 19.075 2 13 2C6.925 2 2 6.925 2 13C2 19.075 6.925 24 13 24ZM13 26C20.18 26 26 20.18 26 13C26 5.82 20.18 0 13 0C5.82 0 0 5.82 0 13C0 20.18 5.82 26 13 26Z" fill="black"/>
</svg>
