<svg width="30" height="30" viewBox="0 0 30 30" fill="none" xmlns="http://www.w3.org/2000/svg">
<path d="M0.293945 26.6224H29.7057V29.5636H0.293945V26.6224ZM3.23512 14.8577H6.1763V25.1519H3.23512V14.8577ZM10.5881 14.8577H13.5292V25.1519H10.5881V14.8577ZM16.4704 14.8577H19.4116V25.1519H16.4704V14.8577ZM23.8234 14.8577H26.7645V25.1519H23.8234V14.8577ZM0.293945 7.5048L14.9998 0.151855L29.7057 7.5048V13.3871H0.293945V7.5048ZM3.23512 9.32244V10.446H26.7645V9.32244L14.9998 3.44009L3.23512 9.32244ZM14.9998 8.97538C14.6098 8.97538 14.2358 8.82045 13.96 8.54466C13.6842 8.26887 13.5292 7.89482 13.5292 7.5048C13.5292 7.11477 13.6842 6.74072 13.96 6.46493C14.2358 6.18915 14.6098 6.03421 14.9998 6.03421C15.3899 6.03421 15.7639 6.18915 16.0397 6.46493C16.3155 6.74072 16.4704 7.11477 16.4704 7.5048C16.4704 7.89482 16.3155 8.26887 16.0397 8.54466C15.7639 8.82045 15.3899 8.97538 14.9998 8.97538Z" fill="black"/>
</svg>
