<svg width="30" height="34" viewBox="0 0 30 34" fill="none" xmlns="http://www.w3.org/2000/svg">
<path d="M11.91 2.41321C12.159 1.79773 12.5862 1.27064 13.1367 0.899496C13.6872 0.528356 14.3361 0.330078 15 0.330078C15.664 0.330078 16.3128 0.528356 16.8633 0.899496C17.4138 1.27064 17.841 1.79773 18.09 2.41321C20.555 3.09026 22.7294 4.55819 24.279 6.59132C25.8285 8.62445 26.6674 11.1102 26.6667 13.6665V21.4949L29.72 26.0749C29.8875 26.3259 29.9837 26.6176 29.9983 26.919C30.0129 27.2204 29.9455 27.5201 29.8031 27.7861C29.6608 28.0522 29.4489 28.2746 29.19 28.4297C28.9312 28.5847 28.6351 28.6666 28.3333 28.6665H20.775C20.5743 30.055 19.8801 31.3248 18.8195 32.2431C17.7589 33.1614 16.4029 33.6669 15 33.6669C13.5971 33.6669 12.2411 33.1614 11.1805 32.2431C10.1199 31.3248 9.42568 30.055 9.22501 28.6665H1.66667C1.36493 28.6666 1.06884 28.5847 0.809991 28.4297C0.551137 28.2746 0.339232 28.0522 0.196882 27.7861C0.0545325 27.5201 -0.0129204 27.2204 0.00171894 26.919C0.0163583 26.6176 0.112541 26.3259 0.280005 26.0749L3.33334 21.4949V13.6665C3.33334 8.29321 6.96667 3.76654 11.91 2.41321ZM12.6433 28.6665C12.8155 29.1543 13.1346 29.5766 13.5569 29.8754C13.9791 30.1741 14.4836 30.3346 15.0008 30.3346C15.5181 30.3346 16.0226 30.1741 16.4448 29.8754C16.867 29.5766 17.1862 29.1543 17.3583 28.6665H12.6433ZM15 5.33321C12.7899 5.33321 10.6703 6.21118 9.10745 7.77398C7.54465 9.33679 6.66667 11.4564 6.66667 13.6665V21.9999C6.66675 22.3291 6.56932 22.651 6.38667 22.9249L4.78167 25.3332H25.2167L23.6117 22.9249C23.4296 22.6508 23.3328 22.3289 23.3333 21.9999V13.6665C23.3333 11.4564 22.4554 9.33679 20.8926 7.77398C19.3298 6.21118 17.2101 5.33321 15 5.33321Z" fill="#222222"/>
</svg>
