<svg width="21" height="21" viewBox="0 0 21 21" fill="none" xmlns="http://www.w3.org/2000/svg">
<path opacity="0.5" d="M8.7498 17.5H12.2498C15.5494 17.5 17.1997 17.5 18.2243 16.4745C19.2489 15.449 19.2498 13.7996 19.2498 10.5C19.2498 10.1133 19.2481 9.093 19.2463 8.75H1.7498C1.74805 9.093 1.7498 10.1133 1.7498 10.5C1.7498 13.7996 1.7498 15.4499 2.77443 16.4745C3.79905 17.4991 5.45105 17.5 8.7498 17.5Z" fill="#41B06E"/>
<path d="M4.59375 11.8125C4.59375 11.6385 4.66289 11.4715 4.78596 11.3485C4.90903 11.2254 5.07595 11.1562 5.25 11.1562H7C7.17405 11.1562 7.34097 11.2254 7.46404 11.3485C7.58711 11.4715 7.65625 11.6385 7.65625 11.8125C7.65625 11.9865 7.58711 12.1535 7.46404 12.2765C7.34097 12.3996 7.17405 12.4688 7 12.4688H5.25C5.07595 12.4688 4.90903 12.3996 4.78596 12.2765C4.66289 12.1535 4.59375 11.9865 4.59375 11.8125ZM4.59375 14.4375C4.59375 14.2635 4.66289 14.0965 4.78596 13.9735C4.90903 13.8504 5.07595 13.7812 5.25 13.7812H8.75C8.92405 13.7812 9.09097 13.8504 9.21404 13.9735C9.33711 14.0965 9.40625 14.2635 9.40625 14.4375C9.40625 14.6115 9.33711 14.7785 9.21404 14.9015C9.09097 15.0246 8.92405 15.0938 8.75 15.0938H5.25C5.07595 15.0938 4.90903 15.0246 4.78596 14.9015C4.66289 14.7785 4.59375 14.6115 4.59375 14.4375Z" fill="#41B06E"/>
<path fill-rule="evenodd" clip-rule="evenodd" d="M15.0474 10.7564C14.7648 10.7188 14.4174 10.7188 14.0394 10.7188H13.9606C13.5817 10.7188 13.2344 10.7188 12.9526 10.7564C12.6411 10.7984 12.313 10.8964 12.0426 11.1676C11.7722 11.4389 11.6734 11.7661 11.6314 12.0776C11.5938 12.3603 11.5938 12.7076 11.5938 13.0856V13.1644C11.5938 13.5433 11.5938 13.8906 11.6314 14.1724C11.6734 14.4839 11.7714 14.812 12.0426 15.0824C12.3139 15.3527 12.6411 15.4516 12.9526 15.4936C13.2353 15.5313 13.5826 15.5312 13.9606 15.5312H14.0394C14.4183 15.5312 14.7656 15.5313 15.0474 15.4936C15.3589 15.4516 15.687 15.3536 15.9574 15.0824C16.2277 14.8111 16.3266 14.4839 16.3686 14.1724C16.4063 13.8898 16.4062 13.5424 16.4062 13.1644V13.0856C16.4062 12.7067 16.4063 12.3594 16.3686 12.0776C16.3266 11.7661 16.2286 11.438 15.9574 11.1676C15.6861 10.8972 15.3589 10.7984 15.0474 10.7564ZM12.9728 12.0942L12.9701 12.0951L12.9692 12.0978L12.9649 12.1065C12.9482 12.1537 12.9373 12.2028 12.9325 12.2526C12.908 12.4364 12.9062 12.6936 12.9062 13.125C12.9062 13.5564 12.908 13.8136 12.9325 13.9974C12.938 14.0504 12.9503 14.1024 12.9692 14.1522L12.9701 14.1549L12.9728 14.1557L12.9815 14.1601C13.0008 14.168 13.0428 14.1811 13.1276 14.1925C13.3114 14.217 13.5686 14.2188 14 14.2188C14.4314 14.2188 14.6886 14.217 14.8724 14.1925C14.9254 14.187 14.9774 14.1747 15.0272 14.1557L15.0299 14.1549L15.0307 14.1522L15.0351 14.1435C15.0519 14.0963 15.0627 14.0472 15.0675 13.9974C15.092 13.8136 15.0938 13.5564 15.0938 13.125C15.0938 12.6936 15.092 12.4364 15.0675 12.2526C15.062 12.1996 15.0497 12.1476 15.0307 12.0978L15.0299 12.0951L15.0272 12.0942L15.0185 12.0899C14.9713 12.0732 14.9222 12.0623 14.8724 12.0575C14.6886 12.033 14.4314 12.0312 14 12.0312C13.5686 12.0312 13.3114 12.033 13.1276 12.0575C13.0746 12.063 13.0226 12.0753 12.9728 12.0942Z" fill="#41B06E"/>
<path d="M8.74563 3.5H12.2544C15.5627 3.5 17.2174 3.5 18.2446 4.4765C18.9849 5.17913 19.1922 6.1915 19.25 7.875V8.75H1.75V7.875C1.80775 6.19062 2.01512 5.18 2.75537 4.4765C3.78262 3.5 5.43725 3.5 8.74563 3.5Z" fill="#41B06E"/>
</svg>
