<svg width="30" height="31" viewBox="0 0 30 31" fill="none" xmlns="http://www.w3.org/2000/svg">
<path d="M14.992 25.7574C9.35199 25.7574 4.79199 21.1974 4.79199 15.5574C4.79199 9.91742 9.35199 5.35742 14.992 5.35742C20.632 5.35742 25.192 9.91742 25.192 15.5574C25.192 21.1974 20.632 25.7574 14.992 25.7574ZM14.992 6.55742C10.012 6.55742 5.99199 10.5774 5.99199 15.5574C5.99199 20.5374 10.012 24.5574 14.992 24.5574C19.972 24.5574 23.992 20.5374 23.992 15.5574C23.992 10.5774 19.972 6.55742 14.992 6.55742Z" fill="black"/>
<path d="M13.792 19.9966L8.57202 14.7766L9.41202 13.9366L13.792 18.3166L20.572 11.5366L21.412 12.3766L13.792 19.9966Z" fill="black"/>
</svg>
