<svg width="1512" height="1307" viewBox="0 0 1512 1307" fill="none" xmlns="http://www.w3.org/2000/svg">
<mask id="path-1-inside-1_589_555" fill="white">
<path fill-rule="evenodd" clip-rule="evenodd" d="M1443.33 1909.2C1699.77 1909.2 1907.66 1698.73 1907.66 1439.1C1907.66 1179.47 1699.77 969 1443.33 969C1186.89 969 979 1179.47 979 1439.1C979 1698.73 1186.89 1909.2 1443.33 1909.2ZM1443.33 1718.85C1596.24 1718.85 1720.2 1593.6 1720.2 1439.1C1720.2 1284.6 1596.24 1159.35 1443.33 1159.35C1290.42 1159.35 1166.46 1284.6 1166.46 1439.1C1166.46 1593.6 1290.42 1718.85 1443.33 1718.85Z"/>
</mask>
<path fill-rule="evenodd" clip-rule="evenodd" d="M1443.33 1909.2C1699.77 1909.2 1907.66 1698.73 1907.66 1439.1C1907.66 1179.47 1699.77 969 1443.33 969C1186.89 969 979 1179.47 979 1439.1C979 1698.73 1186.89 1909.2 1443.33 1909.2ZM1443.33 1718.85C1596.24 1718.85 1720.2 1593.6 1720.2 1439.1C1720.2 1284.6 1596.24 1159.35 1443.33 1159.35C1290.42 1159.35 1166.46 1284.6 1166.46 1439.1C1166.46 1593.6 1290.42 1718.85 1443.33 1718.85Z" fill="#141E46" fill-opacity="0.1"/>
<path d="M1901.01 1439.1C1901.01 1695.13 1696.02 1902.54 1443.33 1902.54V1915.86C1703.53 1915.86 1914.32 1702.33 1914.32 1439.1H1901.01ZM1443.33 975.657C1696.02 975.657 1901.01 1183.07 1901.01 1439.1H1914.32C1914.32 1175.87 1703.53 962.343 1443.33 962.343V975.657ZM985.657 1439.1C985.657 1183.07 1190.64 975.657 1443.33 975.657V962.343C1183.13 962.343 972.343 1175.87 972.343 1439.1H985.657ZM1443.33 1902.54C1190.64 1902.54 985.657 1695.13 985.657 1439.1H972.343C972.343 1702.33 1183.13 1915.86 1443.33 1915.86V1902.54ZM1713.54 1439.1C1713.54 1589.99 1592.5 1712.19 1443.33 1712.19V1725.51C1599.98 1725.51 1726.86 1597.21 1726.86 1439.1H1713.54ZM1443.33 1166C1592.5 1166 1713.54 1288.21 1713.54 1439.1H1726.86C1726.86 1280.99 1599.98 1152.69 1443.33 1152.69V1166ZM1173.12 1439.1C1173.12 1288.21 1294.16 1166 1443.33 1166V1152.69C1286.68 1152.69 1159.81 1280.99 1159.81 1439.1H1173.12ZM1443.33 1712.19C1294.16 1712.19 1173.12 1589.99 1173.12 1439.1H1159.81C1159.81 1597.21 1286.68 1725.51 1443.33 1725.51V1712.19Z" fill="white" fill-opacity="0.12" mask="url(#path-1-inside-1_589_555)"/>
<mask id="path-3-inside-2_589_555" fill="white">
<path fill-rule="evenodd" clip-rule="evenodd" d="M77.83 408.47C229.062 408.47 351.66 284.348 351.66 131.235C351.66 -21.8777 229.062 -146 77.83 -146C-73.4021 -146 -196 -21.8777 -196 131.235C-196 284.348 -73.4021 408.47 77.83 408.47ZM77.8299 296.216C168.006 296.216 241.107 222.352 241.107 131.236C241.107 40.1196 168.006 -33.7446 77.8299 -33.7446C-12.3458 -33.7446 -85.4476 40.1196 -85.4476 131.236C-85.4476 222.352 -12.3458 296.216 77.8299 296.216Z"/>
</mask>
<path fill-rule="evenodd" clip-rule="evenodd" d="M77.83 408.47C229.062 408.47 351.66 284.348 351.66 131.235C351.66 -21.8777 229.062 -146 77.83 -146C-73.4021 -146 -196 -21.8777 -196 131.235C-196 284.348 -73.4021 408.47 77.83 408.47ZM77.8299 296.216C168.006 296.216 241.107 222.352 241.107 131.236C241.107 40.1196 168.006 -33.7446 77.8299 -33.7446C-12.3458 -33.7446 -85.4476 40.1196 -85.4476 131.236C-85.4476 222.352 -12.3458 296.216 77.8299 296.216Z" fill="#4F914A" fill-opacity="0.1"/>
<path d="M348.298 131.235C348.298 282.53 227.166 405.108 77.83 405.108V411.832C230.958 411.832 355.022 286.165 355.022 131.235H348.298ZM77.83 -142.638C227.166 -142.638 348.298 -20.0602 348.298 131.235H355.022C355.022 -23.6952 230.958 -149.362 77.83 -149.362V-142.638ZM-192.638 131.235C-192.638 -20.0602 -71.5063 -142.638 77.83 -142.638V-149.362C-75.298 -149.362 -199.362 -23.6952 -199.362 131.235H-192.638ZM77.83 405.108C-71.5063 405.108 -192.638 282.53 -192.638 131.235H-199.362C-199.362 286.165 -75.298 411.832 77.83 411.832V405.108ZM237.745 131.236C237.745 220.528 166.116 292.854 77.8299 292.854V299.578C169.895 299.578 244.469 224.176 244.469 131.236H237.745ZM77.8299 -30.3826C166.116 -30.3826 237.745 41.9434 237.745 131.236H244.469C244.469 38.2958 169.895 -37.1066 77.8299 -37.1066V-30.3826ZM-82.0856 131.236C-82.0856 41.9434 -10.4562 -30.3826 77.8299 -30.3826V-37.1066C-14.2354 -37.1066 -88.8096 38.2958 -88.8096 131.236H-82.0856ZM77.8299 292.854C-10.4562 292.854 -82.0856 220.528 -82.0856 131.236H-88.8096C-88.8096 224.176 -14.2354 299.578 77.8299 299.578V292.854Z" fill="white" fill-opacity="0.12" mask="url(#path-3-inside-2_589_555)"/>
<mask id="path-5-inside-3_589_555" fill="white">
<path fill-rule="evenodd" clip-rule="evenodd" d="M190.33 1864.2C446.772 1864.2 654.66 1653.73 654.66 1394.1C654.66 1134.47 446.772 924 190.33 924C-66.1124 924 -274 1134.47 -274 1394.1C-274 1653.73 -66.1124 1864.2 190.33 1864.2ZM190.33 1673.85C343.24 1673.85 467.198 1548.6 467.198 1394.1C467.198 1239.6 343.24 1114.35 190.33 1114.35C37.4202 1114.35 -86.5376 1239.6 -86.5376 1394.1C-86.5376 1548.6 37.4202 1673.85 190.33 1673.85Z"/>
</mask>
<path fill-rule="evenodd" clip-rule="evenodd" d="M190.33 1864.2C446.772 1864.2 654.66 1653.73 654.66 1394.1C654.66 1134.47 446.772 924 190.33 924C-66.1124 924 -274 1134.47 -274 1394.1C-274 1653.73 -66.1124 1864.2 190.33 1864.2ZM190.33 1673.85C343.24 1673.85 467.198 1548.6 467.198 1394.1C467.198 1239.6 343.24 1114.35 190.33 1114.35C37.4202 1114.35 -86.5376 1239.6 -86.5376 1394.1C-86.5376 1548.6 37.4202 1673.85 190.33 1673.85Z" fill="#4F914A" fill-opacity="0.1"/>
<path d="M649.456 1394.1C649.456 1650.92 443.838 1859 190.33 1859V1869.4C449.707 1869.4 659.864 1656.54 659.864 1394.1H649.456ZM190.33 929.204C443.838 929.204 649.456 1137.28 649.456 1394.1H659.864C659.864 1131.66 449.707 918.796 190.33 918.796V929.204ZM-268.796 1394.1C-268.796 1137.28 -63.1777 929.204 190.33 929.204V918.796C-69.047 918.796 -279.204 1131.66 -279.204 1394.1H-268.796ZM190.33 1859C-63.1777 1859 -268.796 1650.92 -268.796 1394.1H-279.204C-279.204 1656.54 -69.047 1869.4 190.33 1869.4V1859ZM461.993 1394.1C461.993 1545.78 340.315 1668.65 190.33 1668.65V1679.06C346.165 1679.06 472.402 1551.43 472.402 1394.1H461.993ZM190.33 1119.55C340.315 1119.55 461.993 1242.42 461.993 1394.1H472.402C472.402 1236.77 346.165 1109.14 190.33 1109.14V1119.55ZM-81.3333 1394.1C-81.3333 1242.42 40.3452 1119.55 190.33 1119.55V1109.14C34.4952 1109.14 -91.7419 1236.77 -91.7419 1394.1H-81.3333ZM190.33 1668.65C40.3452 1668.65 -81.3333 1545.78 -81.3333 1394.1H-91.7419C-91.7419 1551.43 34.4952 1679.06 190.33 1679.06V1668.65Z" fill="white" fill-opacity="0.12" mask="url(#path-5-inside-3_589_555)"/>
<mask id="path-7-inside-4_589_555" fill="white">
<path fill-rule="evenodd" clip-rule="evenodd" d="M1482.83 351.466C1634.06 351.466 1756.66 227.344 1756.66 74.2329C1756.66 -78.8786 1634.06 -203 1482.83 -203C1331.6 -203 1209 -78.8786 1209 74.2329C1209 227.344 1331.6 351.466 1482.83 351.466ZM1482.83 239.212C1573.01 239.212 1646.11 165.349 1646.11 74.2333C1646.11 -16.8822 1573.01 -90.7458 1482.83 -90.7458C1392.66 -90.7458 1319.55 -16.8822 1319.55 74.2333C1319.55 165.349 1392.66 239.212 1482.83 239.212Z"/>
</mask>
<path fill-rule="evenodd" clip-rule="evenodd" d="M1482.83 351.466C1634.06 351.466 1756.66 227.344 1756.66 74.2329C1756.66 -78.8786 1634.06 -203 1482.83 -203C1331.6 -203 1209 -78.8786 1209 74.2329C1209 227.344 1331.6 351.466 1482.83 351.466ZM1482.83 239.212C1573.01 239.212 1646.11 165.349 1646.11 74.2333C1646.11 -16.8822 1573.01 -90.7458 1482.83 -90.7458C1392.66 -90.7458 1319.55 -16.8822 1319.55 74.2333C1319.55 165.349 1392.66 239.212 1482.83 239.212Z" fill="#141E46" fill-opacity="0.1"/>
<path d="M1752.74 74.2329C1752.74 225.222 1631.85 347.54 1482.83 347.54V355.392C1636.28 355.392 1760.59 229.467 1760.59 74.2329H1752.74ZM1482.83 -199.074C1631.85 -199.074 1752.74 -76.7562 1752.74 74.2329H1760.59C1760.59 -81.001 1636.28 -206.926 1482.83 -206.926V-199.074ZM1212.93 74.2329C1212.93 -76.7562 1333.81 -199.074 1482.83 -199.074V-206.926C1329.38 -206.926 1205.07 -81.001 1205.07 74.2329H1212.93ZM1482.83 347.54C1333.81 347.54 1212.93 225.222 1212.93 74.2329H1205.07C1205.07 229.467 1329.38 355.392 1482.83 355.392V347.54ZM1642.18 74.2333C1642.18 163.219 1570.8 235.286 1482.83 235.286V243.138C1575.21 243.138 1650.04 167.478 1650.04 74.2333H1642.18ZM1482.83 -86.8199C1570.8 -86.8199 1642.18 -14.7524 1642.18 74.2333H1650.04C1650.04 -19.0119 1575.21 -94.6717 1482.83 -94.6717V-86.8199ZM1323.48 74.2333C1323.48 -14.7524 1394.86 -86.8199 1482.83 -86.8199V-94.6717C1390.45 -94.6717 1315.63 -19.0119 1315.63 74.2333H1323.48ZM1482.83 235.286C1394.86 235.286 1323.48 163.219 1323.48 74.2333H1315.63C1315.63 167.478 1390.45 243.138 1482.83 243.138V235.286Z" fill="white" fill-opacity="0.12" mask="url(#path-7-inside-4_589_555)"/>
</svg>
