<svg width="81" height="80" viewBox="0 0 81 80" fill="none" xmlns="http://www.w3.org/2000/svg">
<path d="M40.5 75C33.5777 75 26.8108 72.9473 21.0551 69.1015C15.2993 65.2556 10.8133 59.7893 8.16423 53.3939C5.51516 46.9985 4.82205 39.9612 6.17253 33.1719C7.52301 26.3825 10.8564 20.1461 15.7513 15.2513C20.6461 10.3564 26.8825 7.02301 33.6719 5.67253C40.4612 4.32205 47.4985 5.01516 53.8939 7.66423C60.2893 10.3133 65.7556 14.7993 69.6015 20.5551C73.4473 26.3108 75.5 33.0777 75.5 40C75.5 49.2826 71.8125 58.185 65.2487 64.7487C58.685 71.3125 49.7826 75 40.5 75ZM40.5 10C34.5666 10 28.7664 11.7595 23.8329 15.0559C18.8994 18.3524 15.0543 23.0377 12.7836 28.5195C10.513 34.0013 9.9189 40.0333 11.0765 45.8527C12.234 51.6722 15.0912 57.0176 19.2868 61.2132C23.4824 65.4088 28.8279 68.266 34.6473 69.4236C40.4667 70.5811 46.4987 69.987 51.9805 67.7164C57.4623 65.4458 62.1477 61.6006 65.4441 56.6671C68.7405 51.7336 70.5 45.9335 70.5 40C70.5 32.0435 67.3393 24.4129 61.7132 18.7868C56.0871 13.1607 48.4565 10 40.5 10Z" fill="#333333"/>
<path d="M51.975 55L38 41.025V17.5H43V38.95L55.5 51.475L51.975 55Z" fill="#333333"/>
</svg>
