<svg width="31" height="31" viewBox="0 0 31 31" fill="none" xmlns="http://www.w3.org/2000/svg">
<path fill-rule="evenodd" clip-rule="evenodd" d="M27.7127 6.99555C27.8354 7.18181 27.8901 7.40473 27.8675 7.62664C27.8449 7.84855 27.7464 8.05587 27.5887 8.21359L15.7144 20.0866C15.5929 20.208 15.4414 20.2949 15.2753 20.3385L10.3295 21.6301C10.166 21.6728 9.99418 21.6719 9.83113 21.6276C9.66807 21.5834 9.51944 21.4972 9.39997 21.3777C9.2805 21.2583 9.19435 21.1096 9.15008 20.9466C9.1058 20.7835 9.10494 20.6117 9.14758 20.4483L10.4393 15.5038C10.4779 15.3557 10.5489 15.218 10.6472 15.1008L22.5654 3.1903C22.7471 3.00888 22.9933 2.90698 23.25 2.90698C23.5067 2.90698 23.7529 3.00888 23.9346 3.1903L27.5887 6.84313C27.6339 6.89071 27.6753 6.94167 27.7127 6.99555ZM25.5337 7.52771L23.25 5.24534L12.2476 16.2478L11.4403 19.3387L14.5313 18.5314L25.5337 7.52771Z" fill="white"/>
<path d="M25.3696 22.1651C25.7227 19.1477 25.8354 16.107 25.7067 13.0718C25.7037 13.0002 25.7156 12.9288 25.7416 12.8621C25.7676 12.7954 25.8072 12.7349 25.8579 12.6843L27.1289 11.4133C27.1636 11.3783 27.2077 11.3542 27.2558 11.3437C27.3039 11.3332 27.3541 11.3369 27.4002 11.3542C27.4463 11.3715 27.4864 11.4018 27.5157 11.4414C27.5451 11.4809 27.5623 11.5282 27.5655 11.5773C27.804 15.1827 27.7132 18.8023 27.2942 22.3911C26.9894 25.0029 24.8917 27.0502 22.2916 27.3408C17.7776 27.8404 13.2224 27.8404 8.70842 27.3408C6.10958 27.0502 4.01062 25.0029 3.70579 22.3911C3.17118 17.8127 3.17118 13.1875 3.70579 8.60906C4.01062 5.99731 6.10829 3.95002 8.70842 3.65939C12.1345 3.28099 15.5862 3.18897 19.0275 3.38427C19.0768 3.3878 19.124 3.40538 19.1636 3.43491C19.2031 3.46445 19.2334 3.50471 19.2508 3.55092C19.2682 3.59713 19.272 3.64736 19.2617 3.69565C19.2515 3.74395 19.2276 3.7883 19.1929 3.82343L17.9102 5.10477C17.8601 5.15494 17.8002 5.19425 17.7342 5.22026C17.6682 5.24626 17.5975 5.25839 17.5266 5.25589C14.6549 5.15753 11.7799 5.26761 8.92412 5.58527C8.08963 5.67763 7.31064 6.04862 6.71299 6.6383C6.11534 7.22798 5.73393 8.00192 5.63037 8.8351C5.11223 13.2633 5.11223 17.7369 5.63037 22.1651C5.73393 22.9983 6.11534 23.7722 6.71299 24.3619C7.31064 24.9516 8.08963 25.3226 8.92412 25.4149C13.2577 25.8993 17.7423 25.8993 22.0772 25.4149C22.9117 25.3226 23.6906 24.9516 24.2883 24.3619C24.8859 23.7722 25.2661 22.9983 25.3696 22.1651Z" fill="white"/>
</svg>
