<svg width="29" height="29" viewBox="0 0 29 29" fill="none" xmlns="http://www.w3.org/2000/svg">
<rect width="29" height="29" fill="#1E1E1E"/>
<g clip-path="url(#clip0_6_1185)">
<rect width="1512" height="1307" transform="translate(-1211 -512)" fill="white"/>
<g opacity="0.4">
<path d="M10.15 19.7055L14.5 15.3555L18.85 19.7055L19.7055 18.85L15.3555 14.5L19.7055 10.15L18.85 9.2945L14.5 13.6445L10.15 9.2945L9.2945 10.15L13.6445 14.5L9.2945 18.85L10.15 19.7055ZM14.5036 25.375C13.0005 25.375 11.5867 25.0898 10.2624 24.5195C8.93885 23.9484 7.78731 23.1734 6.80775 22.1947C5.82819 21.2159 5.05285 20.0656 4.48171 18.7437C3.91057 17.4217 3.625 16.0084 3.625 14.5036C3.625 12.9988 3.91057 11.5851 4.48171 10.2624C5.05204 8.93885 5.82578 7.7873 6.80292 6.80775C7.78006 5.82819 8.93079 5.05285 10.2551 4.48171C11.5795 3.91057 12.9932 3.625 14.4964 3.625C15.9995 3.625 17.4133 3.91057 18.7376 4.48171C20.0612 5.05204 21.2127 5.82618 22.1922 6.80412C23.1718 7.78207 23.9472 8.93281 24.5183 10.2563C25.0894 11.5799 25.375 12.9932 25.375 14.4964C25.375 15.9995 25.0898 17.4133 24.5195 18.7376C23.9492 20.062 23.1742 21.2135 22.1947 22.1922C21.2151 23.171 20.0648 23.9463 18.7437 24.5183C17.4226 25.0902 16.0092 25.3758 14.5036 25.375ZM14.5 24.1667C17.1986 24.1667 19.4844 23.2302 21.3573 21.3573C23.2302 19.4844 24.1667 17.1986 24.1667 14.5C24.1667 11.8014 23.2302 9.51562 21.3573 7.64271C19.4844 5.76979 17.1986 4.83333 14.5 4.83333C11.8014 4.83333 9.51562 5.76979 7.64271 7.64271C5.76979 9.51562 4.83333 11.8014 4.83333 14.5C4.83333 17.1986 5.76979 19.4844 7.64271 21.3573C9.51562 23.2302 11.8014 24.1667 14.5 24.1667Z" fill="black"/>
<path d="M-120.589 -3L-121.315 -4.804L-116.607 -10.106C-116.357 -10.37 -116.101 -10.6707 -115.837 -11.008C-115.558 -11.36 -115.294 -11.7193 -115.045 -12.086C-114.795 -12.4527 -114.597 -12.812 -114.451 -13.164C-114.289 -13.5307 -114.209 -13.8753 -114.209 -14.198C-114.209 -14.6673 -114.304 -15.0633 -114.495 -15.386C-114.671 -15.7233 -114.935 -15.98 -115.287 -16.156C-115.624 -16.332 -116.035 -16.42 -116.519 -16.42C-116.944 -16.42 -117.362 -16.2953 -117.773 -16.046C-118.183 -15.7967 -118.557 -15.4447 -118.895 -14.99C-119.232 -14.5353 -119.496 -14.0073 -119.687 -13.406L-121.513 -14.55C-121.263 -15.4007 -120.889 -16.1267 -120.391 -16.728C-119.877 -17.344 -119.269 -17.8133 -118.565 -18.136C-117.846 -18.4587 -117.069 -18.62 -116.233 -18.62C-115.367 -18.62 -114.597 -18.4367 -113.923 -18.07C-113.248 -17.718 -112.72 -17.2193 -112.339 -16.574C-111.957 -15.9433 -111.767 -15.21 -111.767 -14.374C-111.767 -14.0367 -111.803 -13.692 -111.877 -13.34C-111.95 -12.988 -112.067 -12.6213 -112.229 -12.24C-112.39 -11.8733 -112.595 -11.4847 -112.845 -11.074C-113.094 -10.678 -113.395 -10.26 -113.747 -9.82C-114.084 -9.38 -114.473 -8.918 -114.913 -8.434L-118.411 -4.628L-118.851 -5.288H-111.283V-3H-120.589ZM-103.916 -2.78C-105.089 -2.78 -106.101 -3.10267 -106.952 -3.748C-107.788 -4.39333 -108.433 -5.30267 -108.888 -6.476C-109.343 -7.664 -109.57 -9.072 -109.57 -10.7C-109.57 -12.328 -109.343 -13.7287 -108.888 -14.902C-108.433 -16.09 -107.788 -17.0067 -106.952 -17.652C-106.101 -18.2973 -105.089 -18.62 -103.916 -18.62C-102.743 -18.62 -101.731 -18.2973 -100.88 -17.652C-100.029 -17.0067 -99.3767 -16.09 -98.922 -14.902C-98.4674 -13.7287 -98.24 -12.328 -98.24 -10.7C-98.24 -9.072 -98.4674 -7.664 -98.922 -6.476C-99.3767 -5.30267 -100.029 -4.39333 -100.88 -3.748C-101.731 -3.10267 -102.743 -2.78 -103.916 -2.78ZM-103.916 -4.936C-102.845 -4.936 -102.017 -5.43467 -101.43 -6.432C-100.843 -7.444 -100.55 -8.86667 -100.55 -10.7C-100.55 -12.5333 -100.843 -13.9487 -101.43 -14.946C-102.017 -15.958 -102.845 -16.464 -103.916 -16.464C-104.987 -16.464 -105.815 -15.958 -106.402 -14.946C-106.989 -13.9487 -107.282 -12.5333 -107.282 -10.7C-107.282 -8.86667 -106.989 -7.444 -106.402 -6.432C-105.815 -5.43467 -104.987 -4.936 -103.916 -4.936ZM-90.5527 -2.78C-91.7261 -2.78 -92.7381 -3.10267 -93.5887 -3.748C-94.4247 -4.39333 -95.0701 -5.30267 -95.5247 -6.476C-95.9794 -7.664 -96.2067 -9.072 -96.2067 -10.7C-96.2067 -12.328 -95.9794 -13.7287 -95.5247 -14.902C-95.0701 -16.09 -94.4247 -17.0067 -93.5887 -17.652C-92.7381 -18.2973 -91.7261 -18.62 -90.5527 -18.62C-89.3794 -18.62 -88.3674 -18.2973 -87.5167 -17.652C-86.6661 -17.0067 -86.0134 -16.09 -85.5587 -14.902C-85.1041 -13.7287 -84.8767 -12.328 -84.8767 -10.7C-84.8767 -9.072 -85.1041 -7.664 -85.5587 -6.476C-86.0134 -5.30267 -86.6661 -4.39333 -87.5167 -3.748C-88.3674 -3.10267 -89.3794 -2.78 -90.5527 -2.78ZM-90.5527 -4.936C-89.4821 -4.936 -88.6534 -5.43467 -88.0667 -6.432C-87.4801 -7.444 -87.1867 -8.86667 -87.1867 -10.7C-87.1867 -12.5333 -87.4801 -13.9487 -88.0667 -14.946C-88.6534 -15.958 -89.4821 -16.464 -90.5527 -16.464C-91.6234 -16.464 -92.4521 -15.958 -93.0387 -14.946C-93.6254 -13.9487 -93.9187 -12.5333 -93.9187 -10.7C-93.9187 -8.86667 -93.6254 -7.444 -93.0387 -6.432C-92.4521 -5.43467 -91.6234 -4.936 -90.5527 -4.936ZM-81.9195 0.938L-82.7555 -0.074C-82.2421 -0.367333 -81.8241 -0.704667 -81.5015 -1.086C-81.1788 -1.46733 -81.0175 -1.79733 -81.0175 -2.076C-81.0175 -2.22267 -81.0541 -2.36933 -81.1275 -2.516C-81.2008 -2.648 -81.3548 -2.83867 -81.5895 -3.088C-81.8828 -3.36667 -82.0735 -3.60133 -82.1615 -3.792C-82.2495 -3.98267 -82.2935 -4.188 -82.2935 -4.408C-82.2935 -4.76 -82.1688 -5.03867 -81.9195 -5.244C-81.6701 -5.464 -81.3475 -5.574 -80.9515 -5.574C-80.5848 -5.574 -80.2548 -5.464 -79.9615 -5.244C-79.6535 -5.03867 -79.4188 -4.74533 -79.2575 -4.364C-79.0815 -3.99733 -78.9935 -3.572 -78.9935 -3.088C-78.9935 -2.648 -79.0668 -2.22267 -79.2135 -1.812C-79.3601 -1.40133 -79.5655 -1.02 -79.8295 -0.668C-80.0935 -0.316 -80.4015 -0.000666489 -80.7535 0.278C-81.1055 0.556667 -81.4941 0.776667 -81.9195 0.938ZM-71.3242 -2.78C-72.4976 -2.78 -73.5096 -3.10267 -74.3602 -3.748C-75.1962 -4.39333 -75.8416 -5.30267 -76.2962 -6.476C-76.7509 -7.664 -76.9782 -9.072 -76.9782 -10.7C-76.9782 -12.328 -76.7509 -13.7287 -76.2962 -14.902C-75.8416 -16.09 -75.1962 -17.0067 -74.3602 -17.652C-73.5096 -18.2973 -72.4976 -18.62 -71.3242 -18.62C-70.1509 -18.62 -69.1389 -18.2973 -68.2882 -17.652C-67.4376 -17.0067 -66.7849 -16.09 -66.3302 -14.902C-65.8756 -13.7287 -65.6482 -12.328 -65.6482 -10.7C-65.6482 -9.072 -65.8756 -7.664 -66.3302 -6.476C-66.7849 -5.30267 -67.4376 -4.39333 -68.2882 -3.748C-69.1389 -3.10267 -70.1509 -2.78 -71.3242 -2.78ZM-71.3242 -4.936C-70.2536 -4.936 -69.4249 -5.43467 -68.8382 -6.432C-68.2516 -7.444 -67.9582 -8.86667 -67.9582 -10.7C-67.9582 -12.5333 -68.2516 -13.9487 -68.8382 -14.946C-69.4249 -15.958 -70.2536 -16.464 -71.3242 -16.464C-72.3949 -16.464 -73.2236 -15.958 -73.8102 -14.946C-74.3969 -13.9487 -74.6902 -12.5333 -74.6902 -10.7C-74.6902 -8.86667 -74.3969 -7.444 -73.8102 -6.432C-73.2236 -5.43467 -72.3949 -4.936 -71.3242 -4.936ZM-57.961 -2.78C-59.1343 -2.78 -60.1463 -3.10267 -60.997 -3.748C-61.833 -4.39333 -62.4783 -5.30267 -62.933 -6.476C-63.3876 -7.664 -63.615 -9.072 -63.615 -10.7C-63.615 -12.328 -63.3876 -13.7287 -62.933 -14.902C-62.4783 -16.09 -61.833 -17.0067 -60.997 -17.652C-60.1463 -18.2973 -59.1343 -18.62 -57.961 -18.62C-56.7876 -18.62 -55.7756 -18.2973 -54.925 -17.652C-54.0743 -17.0067 -53.4216 -16.09 -52.967 -14.902C-52.5123 -13.7287 -52.285 -12.328 -52.285 -10.7C-52.285 -9.072 -52.5123 -7.664 -52.967 -6.476C-53.4216 -5.30267 -54.0743 -4.39333 -54.925 -3.748C-55.7756 -3.10267 -56.7876 -2.78 -57.961 -2.78ZM-57.961 -4.936C-56.8903 -4.936 -56.0616 -5.43467 -55.475 -6.432C-54.8883 -7.444 -54.595 -8.86667 -54.595 -10.7C-54.595 -12.5333 -54.8883 -13.9487 -55.475 -14.946C-56.0616 -15.958 -56.8903 -16.464 -57.961 -16.464C-59.0316 -16.464 -59.8603 -15.958 -60.447 -14.946C-61.0336 -13.9487 -61.327 -12.5333 -61.327 -10.7C-61.327 -8.86667 -61.0336 -7.444 -60.447 -6.432C-59.8603 -5.43467 -59.0316 -4.936 -57.961 -4.936ZM-44.5977 -2.78C-45.771 -2.78 -46.783 -3.10267 -47.6337 -3.748C-48.4697 -4.39333 -49.115 -5.30267 -49.5697 -6.476C-50.0243 -7.664 -50.2517 -9.072 -50.2517 -10.7C-50.2517 -12.328 -50.0243 -13.7287 -49.5697 -14.902C-49.115 -16.09 -48.4697 -17.0067 -47.6337 -17.652C-46.783 -18.2973 -45.771 -18.62 -44.5977 -18.62C-43.4243 -18.62 -42.4123 -18.2973 -41.5617 -17.652C-40.711 -17.0067 -40.0583 -16.09 -39.6037 -14.902C-39.149 -13.7287 -38.9217 -12.328 -38.9217 -10.7C-38.9217 -9.072 -39.149 -7.664 -39.6037 -6.476C-40.0583 -5.30267 -40.711 -4.39333 -41.5617 -3.748C-42.4123 -3.10267 -43.4243 -2.78 -44.5977 -2.78ZM-44.5977 -4.936C-43.527 -4.936 -42.6983 -5.43467 -42.1117 -6.432C-41.525 -7.444 -41.2317 -8.86667 -41.2317 -10.7C-41.2317 -12.5333 -41.525 -13.9487 -42.1117 -14.946C-42.6983 -15.958 -43.527 -16.464 -44.5977 -16.464C-45.6683 -16.464 -46.497 -15.958 -47.0837 -14.946C-47.6703 -13.9487 -47.9637 -12.5333 -47.9637 -10.7C-47.9637 -8.86667 -47.6703 -7.444 -47.0837 -6.432C-46.497 -5.43467 -45.6683 -4.936 -44.5977 -4.936ZM-29.5784 -3V-18.4H-27.4444L-18.0284 -5.794L-18.3804 -5.596C-18.439 -5.96267 -18.4904 -6.35867 -18.5344 -6.784C-18.5784 -7.224 -18.6224 -7.686 -18.6664 -8.17C-18.6957 -8.66867 -18.725 -9.18933 -18.7544 -9.732C-18.769 -10.2893 -18.7837 -10.8687 -18.7984 -11.47C-18.813 -12.0713 -18.8204 -12.6947 -18.8204 -13.34V-18.4H-16.4444V-3H-18.6224L-27.8844 -15.144L-27.6424 -15.452C-27.569 -14.5573 -27.5104 -13.7947 -27.4664 -13.164C-27.4077 -12.548 -27.3637 -12.02 -27.3344 -11.58C-27.2904 -11.1547 -27.261 -10.8027 -27.2464 -10.524C-27.2317 -10.26 -27.2244 -10.04 -27.2244 -9.864C-27.2097 -9.688 -27.2024 -9.534 -27.2024 -9.402V-3H-29.5784ZM-5.24706 -2.78C-6.36173 -2.78 -7.40306 -2.978 -8.37106 -3.374C-9.33906 -3.78467 -10.1897 -4.34933 -10.9231 -5.068C-11.6564 -5.78667 -12.2284 -6.62267 -12.6391 -7.576C-13.0351 -8.544 -13.2331 -9.58533 -13.2331 -10.7C-13.2331 -11.8 -13.0351 -12.8267 -12.6391 -13.78C-12.2284 -14.7333 -11.6637 -15.562 -10.9451 -16.266C-10.2117 -16.9847 -9.36106 -17.542 -8.39306 -17.938C-7.42506 -18.334 -6.38373 -18.532 -5.26906 -18.532C-4.49173 -18.532 -3.7364 -18.422 -3.00306 -18.202C-2.25506 -17.982 -1.5804 -17.674 -0.979062 -17.278C-0.377729 -16.882 0.113605 -16.4273 0.494939 -15.914L-1.04506 -14.308C-1.48506 -14.7333 -1.93973 -15.0853 -2.40906 -15.364C-2.86373 -15.6427 -3.33306 -15.8553 -3.81706 -16.002C-4.30106 -16.1487 -4.78506 -16.222 -5.26906 -16.222C-6.06106 -16.222 -6.7944 -16.0827 -7.46906 -15.804C-8.12906 -15.5253 -8.71573 -15.1367 -9.22906 -14.638C-9.72773 -14.1393 -10.1164 -13.5527 -10.3951 -12.878C-10.6737 -12.218 -10.8131 -11.492 -10.8131 -10.7C-10.8131 -9.93733 -10.6664 -9.21133 -10.3731 -8.522C-10.0797 -7.84733 -9.6764 -7.25333 -9.16306 -6.74C-8.63506 -6.22667 -8.03373 -5.82333 -7.35906 -5.53C-6.66973 -5.23667 -5.94373 -5.09 -5.18106 -5.09C-4.60906 -5.09 -4.0664 -5.17067 -3.55306 -5.332C-3.03973 -5.508 -2.58506 -5.75 -2.18906 -6.058C-1.79306 -6.366 -1.48506 -6.718 -1.26506 -7.114C-1.04506 -7.52467 -0.935061 -7.95733 -0.935061 -8.412V-8.852L-0.605062 -8.544H-5.31306V-10.898H1.50694C1.53627 -10.7367 1.55827 -10.5753 1.57294 -10.414C1.58761 -10.2673 1.59494 -10.1207 1.59494 -9.974C1.60961 -9.842 1.61694 -9.71 1.61694 -9.578C1.61694 -8.566 1.44094 -7.642 1.08894 -6.806C0.736938 -5.98467 0.245605 -5.27333 -0.385062 -4.672C-1.00106 -4.07067 -1.72706 -3.60133 -2.56306 -3.264C-3.3844 -2.94133 -4.27906 -2.78 -5.24706 -2.78ZM4.71069 -3V-18.4H6.84469L16.2607 -5.794L15.9087 -5.596C15.85 -5.96267 15.7987 -6.35867 15.7547 -6.784C15.7107 -7.224 15.6667 -7.686 15.6227 -8.17C15.5934 -8.66867 15.564 -9.18933 15.5347 -9.732C15.52 -10.2893 15.5054 -10.8687 15.4907 -11.47C15.476 -12.0713 15.4687 -12.6947 15.4687 -13.34V-18.4H17.8447V-3H15.6667L6.40469 -15.144L6.64669 -15.452C6.72002 -14.5573 6.77869 -13.7947 6.82269 -13.164C6.88135 -12.548 6.92535 -12.02 6.95469 -11.58C6.99869 -11.1547 7.02802 -10.8027 7.04269 -10.524C7.05735 -10.26 7.06469 -10.04 7.06469 -9.864C7.07935 -9.688 7.08669 -9.534 7.08669 -9.402V-3H4.71069Z" fill="black"/>
</g>
</g>
<defs>
<clipPath id="clip0_6_1185">
<rect width="1512" height="1307" fill="white" transform="translate(-1211 -512)"/>
</clipPath>
</defs>
</svg>
