<svg width="26" height="26" viewBox="0 0 26 26" fill="none" xmlns="http://www.w3.org/2000/svg">
<g clip-path="url(#clip0_704_1035)">
<path d="M14.732 12.3599C14.8149 12.2554 14.9178 12.1686 15.0347 12.1045C15.1517 12.0404 15.2802 12.0004 15.4129 11.9867C15.5455 11.973 15.6795 11.986 15.8071 12.0249C15.9346 12.0638 16.0531 12.1279 16.1555 12.2132C16.258 12.2986 16.3423 12.4036 16.4036 12.522C16.4648 12.6404 16.5018 12.7699 16.5123 12.9029C16.5227 13.0358 16.5065 13.1695 16.4646 13.2961C16.4226 13.4226 16.3558 13.5395 16.268 13.6399L11.268 19.6399C11.1851 19.7443 11.0822 19.8312 10.9652 19.8952C10.8483 19.9593 10.7197 19.9994 10.5871 20.0131C10.4545 20.0267 10.3204 20.0137 10.1929 19.9748C10.0653 19.9359 9.94687 19.8719 9.84443 19.7865C9.742 19.7012 9.65767 19.5962 9.59641 19.4778C9.53515 19.3593 9.49819 19.2298 9.48771 19.0969C9.47723 18.964 9.49345 18.8303 9.5354 18.7037C9.57735 18.5771 9.64419 18.4602 9.73198 18.3599L14.732 12.3599Z" fill="black"/>
<path d="M9.73202 7.64012C9.56975 7.43561 9.4939 7.17576 9.52065 6.91608C9.5474 6.65639 9.67465 6.41746 9.8752 6.25034C10.0758 6.08321 10.3337 6.00114 10.594 6.02165C10.8542 6.04216 11.0961 6.16364 11.268 6.36012L16.268 12.3601C16.3558 12.4605 16.4227 12.5774 16.4646 12.704C16.5066 12.8305 16.5228 12.9642 16.5123 13.0971C16.5018 13.2301 16.4649 13.3596 16.4036 13.478C16.3423 13.5964 16.258 13.7014 16.1556 13.7868C16.0531 13.8721 15.9347 13.9362 15.8071 13.9751C15.6796 14.014 15.5455 14.027 15.4129 14.0133C15.2803 13.9996 15.1517 13.9596 15.0348 13.8955C14.9178 13.8314 14.8149 13.7446 14.732 13.6401L9.73202 7.64012Z" fill="black"/>
<path fill-rule="evenodd" clip-rule="evenodd" d="M13 24C19.075 24 24 19.075 24 13C24 6.925 19.075 2 13 2C6.925 2 2 6.925 2 13C2 19.075 6.925 24 13 24ZM13 26C20.18 26 26 20.18 26 13C26 5.82 20.18 0 13 0C5.82 0 0 5.82 0 13C0 20.18 5.82 26 13 26Z" fill="black"/>
</g>
<defs>
<clipPath id="clip0_704_1035">
<rect width="26" height="26" fill="white"/>
</clipPath>
</defs>
</svg>
