<svg width="17" height="16" viewBox="0 0 17 16" fill="none" xmlns="http://www.w3.org/2000/svg">
<g clip-path="url(#clip0_144_834)">
<path d="M16.3442 8.18417C16.3442 7.64035 16.3001 7.09359 16.206 6.55859H8.66016V9.63925H12.9813C12.802 10.6328 12.2258 11.5117 11.3822 12.0703V14.0692H13.9602C15.4741 12.6758 16.3442 10.6181 16.3442 8.18417Z" fill="#4285F4"/>
<path d="M8.66072 15.9983C10.8184 15.9983 12.6379 15.2898 13.9637 14.067L11.3857 12.0681C10.6684 12.5561 9.74248 12.8324 8.66366 12.8324C6.57657 12.8324 4.80696 11.4243 4.17202 9.53125H1.51172V11.5919C2.86979 14.2933 5.63592 15.9983 8.66072 15.9983Z" fill="#34A853"/>
<path d="M4.16852 9.5338C3.83341 8.54023 3.83341 7.46435 4.16852 6.47078V4.41016H1.51116C0.376489 6.67067 0.376489 9.33391 1.51116 11.5944L4.16852 9.5338Z" fill="#FBBC04"/>
<path d="M8.66072 3.16644C9.80127 3.1488 10.9036 3.57798 11.7296 4.36578L14.0136 2.08174C12.5674 0.72367 10.6479 -0.0229773 8.66072 0.000539111C5.63592 0.000539111 2.86979 1.70548 1.51172 4.40987L4.16908 6.4705C4.80108 4.57449 6.57363 3.16644 8.66072 3.16644Z" fill="#EA4335"/>
</g>
<defs>
<clipPath id="clip0_144_834">
<rect width="16" height="16" fill="white" transform="translate(0.5)"/>
</clipPath>
</defs>
</svg>
