<svg width="81" height="80" viewBox="0 0 81 80" fill="none" xmlns="http://www.w3.org/2000/svg">
<path d="M56.125 12.5C49.6719 12.5 44.0219 15.275 40.5 19.9656C36.9781 15.275 31.3281 12.5 24.875 12.5C19.7382 12.5058 14.8135 14.5489 11.1812 18.1812C7.54894 21.8135 5.50579 26.7382 5.5 31.875C5.5 53.75 37.9344 71.4563 39.3156 72.1875C39.6797 72.3833 40.0866 72.4859 40.5 72.4859C40.9134 72.4859 41.3203 72.3833 41.6844 72.1875C43.0656 71.4563 75.5 53.75 75.5 31.875C75.4942 26.7382 73.4511 21.8135 69.8188 18.1812C66.1865 14.5489 61.2618 12.5058 56.125 12.5ZM40.5 67.125C34.7938 63.8 10.5 48.6531 10.5 31.875C10.505 28.064 12.0211 24.4106 14.7158 21.7158C17.4106 19.0211 21.064 17.505 24.875 17.5C30.9531 17.5 36.0562 20.7375 38.1875 25.9375C38.3759 26.396 38.6963 26.7882 39.108 27.0642C39.5198 27.3402 40.0043 27.4876 40.5 27.4876C40.9957 27.4876 41.4802 27.3402 41.892 27.0642C42.3037 26.7882 42.6241 26.396 42.8125 25.9375C44.9437 20.7281 50.0469 17.5 56.125 17.5C59.936 17.505 63.5894 19.0211 66.2842 21.7158C68.9789 24.4106 70.495 28.064 70.5 31.875C70.5 48.6281 46.2 63.7969 40.5 67.125Z" fill="#333333"/>
</svg>
