<svg width="24" height="24" viewBox="0 0 24 24" fill="none" xmlns="http://www.w3.org/2000/svg">
<path d="M21.6601 10.2502L12.6601 2.2502C12.4776 2.08988 12.243 2.00146 12.0001 2.00146C11.7572 2.00146 11.5226 2.08988 11.3401 2.2502L2.34012 10.2502C2.18715 10.3855 2.07929 10.5644 2.03102 10.7629C1.98275 10.9613 1.99639 11.1697 2.07012 11.3602C2.14264 11.5481 2.27022 11.7098 2.43617 11.824C2.60211 11.9382 2.79868 11.9996 3.00012 12.0002H4.00012V21.0002C4.00012 21.2654 4.10548 21.5198 4.29301 21.7073C4.48055 21.8948 4.7349 22.0002 5.00012 22.0002H19.0001C19.2653 22.0002 19.5197 21.8948 19.7072 21.7073C19.8948 21.5198 20.0001 21.2654 20.0001 21.0002V12.0002H21.0001C21.2016 11.9996 21.3981 11.9382 21.5641 11.824C21.73 11.7098 21.8576 11.5481 21.9301 11.3602C22.0038 11.1697 22.0175 10.9613 21.9692 10.7629C21.9209 10.5644 21.8131 10.3855 21.6601 10.2502ZM13.0001 20.0002H11.0001V17.0002C11.0001 16.735 11.1055 16.4806 11.293 16.2931C11.4805 16.1056 11.7349 16.0002 12.0001 16.0002C12.2653 16.0002 12.5197 16.1056 12.7072 16.2931C12.8948 16.4806 13.0001 16.735 13.0001 17.0002V20.0002ZM18.0001 20.0002H15.0001V17.0002C15.0001 16.2045 14.684 15.4415 14.1214 14.8789C13.5588 14.3163 12.7958 14.0002 12.0001 14.0002C11.2045 14.0002 10.4414 14.3163 9.8788 14.8789C9.31619 15.4415 9.00012 16.2045 9.00012 17.0002V20.0002H6.00012V12.0002H18.0001V20.0002ZM5.63012 10.0002L12.0001 4.3402L18.3701 10.0002H5.63012Z" fill="#141E46"/>
</svg>
