<svg width="20" height="20" viewBox="0 0 20 20" fill="none" xmlns="http://www.w3.org/2000/svg">
<g clip-path="url(#clip0_145_2157)">
<mask id="mask0_145_2157" style="mask-type:luminance" maskUnits="userSpaceOnUse" x="0" y="0" width="20" height="20">
<path d="M14.1667 2.5H5.83333C4.94928 2.5 4.10143 2.85119 3.47631 3.47631C2.85119 4.10143 2.5 4.94928 2.5 5.83333V14.1667C2.5 15.0507 2.85119 15.8986 3.47631 16.5237C4.10143 17.1488 4.94928 17.5 5.83333 17.5H14.1667C15.0507 17.5 15.8986 17.1488 16.5237 16.5237C17.1488 15.8986 17.5 15.0507 17.5 14.1667V5.83333C17.5 4.94928 17.1488 4.10143 16.5237 3.47631C15.8986 2.85119 15.0507 2.5 14.1667 2.5Z" fill="#555555" stroke="white" stroke-width="4" stroke-linejoin="round"/>
<path d="M9.99984 13.3333C10.8839 13.3333 11.7317 12.9821 12.3569 12.357C12.982 11.7319 13.3332 10.884 13.3332 9.99996C13.3332 9.1159 12.982 8.26806 12.3569 7.64294C11.7317 7.01782 10.8839 6.66663 9.99984 6.66663C9.11578 6.66663 8.26794 7.01782 7.64281 7.64294C7.01769 8.26806 6.6665 9.1159 6.6665 9.99996C6.6665 10.884 7.01769 11.7319 7.64281 12.357C8.26794 12.9821 9.11578 13.3333 9.99984 13.3333Z" fill="#555555" stroke="white" stroke-width="4" stroke-linejoin="round"/>
<path d="M14.5833 6.25004C14.8043 6.25004 15.0163 6.16224 15.1726 6.00596C15.3289 5.84968 15.4167 5.63772 15.4167 5.41671C15.4167 5.19569 15.3289 4.98373 15.1726 4.82745C15.0163 4.67117 14.8043 4.58337 14.5833 4.58337C14.3623 4.58337 14.1504 4.67117 13.9941 4.82745C13.8378 4.98373 13.75 5.19569 13.75 5.41671C13.75 5.63772 13.8378 5.84968 13.9941 6.00596C14.1504 6.16224 14.3623 6.25004 14.5833 6.25004Z" fill="white"/>
</mask>
<g mask="url(#mask0_145_2157)">
<path d="M0 0H20V20H0V0Z" fill="white"/>
</g>
</g>
<defs>
<clipPath id="clip0_145_2157">
<rect width="20" height="20" fill="white"/>
</clipPath>
</defs>
</svg>
