<svg width="24" height="24" viewBox="0 0 24 24" fill="none" xmlns="http://www.w3.org/2000/svg">
<path d="M20.6484 18.6328C21.1641 18.8828 21.625 19.1953 22.0312 19.5703C22.4375 19.9453 22.7891 20.3672 23.0859 20.8359C23.3828 21.3047 23.6094 21.8047 23.7656 22.3359C23.9219 22.8672 24 23.4219 24 24H22.5C22.5 23.3828 22.3828 22.8008 22.1484 22.2539C21.9141 21.707 21.5898 21.2305 21.1758 20.8242C20.7617 20.418 20.2852 20.0977 19.7461 19.8633C19.207 19.6289 18.625 19.5078 18 19.5C17.3828 19.5 16.8008 19.6172 16.2539 19.8516C15.707 20.0859 15.2305 20.4102 14.8242 20.8242C14.418 21.2383 14.0977 21.7148 13.8633 22.2539C13.6289 22.793 13.5078 23.375 13.5 24H12C12 23.4297 12.0781 22.8789 12.2344 22.3477C12.3906 21.8164 12.6133 21.3164 12.9023 20.8477C13.1914 20.3789 13.543 19.957 13.957 19.582C14.3711 19.207 14.8359 18.8906 15.3516 18.6328C14.7656 18.2109 14.3125 17.6836 13.9922 17.0508C13.6719 16.418 13.5078 15.7344 13.5 15C13.5 14.3828 13.6172 13.8008 13.8516 13.2539C14.0859 12.707 14.4062 12.2305 14.8125 11.8242C15.2188 11.418 15.6953 11.0938 16.2422 10.8516C16.7891 10.6094 17.375 10.4922 18 10.5C18.6172 10.5 19.1992 10.6172 19.7461 10.8516C20.293 11.0859 20.7695 11.4062 21.1758 11.8125C21.582 12.2188 21.9062 12.6992 22.1484 13.2539C22.3906 13.8086 22.5078 14.3906 22.5 15C22.5 15.7266 22.3398 16.4062 22.0195 17.0391C21.6992 17.6719 21.2422 18.2031 20.6484 18.6328ZM18 18C18.4141 18 18.8008 17.9219 19.1602 17.7656C19.5195 17.6094 19.8398 17.3945 20.1211 17.1211C20.4023 16.8477 20.6172 16.5312 20.7656 16.1719C20.9141 15.8125 20.9922 15.4219 21 15C21 14.5859 20.9219 14.1992 20.7656 13.8398C20.6094 13.4805 20.3945 13.1602 20.1211 12.8789C19.8477 12.5977 19.5312 12.3828 19.1719 12.2344C18.8125 12.0859 18.4219 12.0078 18 12C17.5859 12 17.1992 12.0781 16.8398 12.2344C16.4805 12.3906 16.1602 12.6055 15.8789 12.8789C15.5977 13.1523 15.3828 13.4688 15.2344 13.8281C15.0859 14.1875 15.0078 14.5781 15 15C15 15.4141 15.0781 15.8008 15.2344 16.1602C15.3906 16.5195 15.6055 16.8398 15.8789 17.1211C16.1523 17.4023 16.4688 17.6172 16.8281 17.7656C17.1875 17.9141 17.5781 17.9922 18 18ZM24 1.5V13.5C24 13.125 23.9648 12.7969 23.8945 12.5156C23.8242 12.2344 23.7266 11.9727 23.6016 11.7305C23.4766 11.4883 23.3203 11.2539 23.1328 11.0273C22.9453 10.8008 22.7344 10.5547 22.5 10.2891V3H1.5V16.5H4.5V19.6289L7.62891 16.5H12.1992C12.2617 16.7656 12.3438 17.0234 12.4453 17.2734C12.5469 17.5234 12.668 17.7656 12.8086 18H8.25L3 23.25V18H0V1.5H24Z" fill="white"/>
</svg>
