<svg width="20" height="20" viewBox="0 0 20 20" fill="none" xmlns="http://www.w3.org/2000/svg">
<path d="M14.1663 10.9416V14.0224H12.3805V11.1474C12.3805 10.4257 12.1222 9.93325 11.4755 9.93325C10.9822 9.93325 10.688 10.2649 10.5588 10.5866C10.5122 10.7016 10.4997 10.8616 10.4997 11.0216V14.0224H8.71301C8.71301 14.0224 8.73717 9.15408 8.71301 8.64992H10.4997V9.41075L10.488 9.42825H10.4997V9.41075C10.7372 9.04408 11.1605 8.52325 12.1097 8.52325C13.2847 8.52325 14.1663 9.29158 14.1663 10.9416ZM6.84384 6.05908C6.23301 6.05908 5.83301 6.46075 5.83301 6.98742C5.83301 7.50408 6.22134 7.91658 6.82051 7.91658H6.83217C7.45551 7.91658 7.84301 7.50325 7.84301 6.98742C7.83134 6.46075 7.45551 6.05908 6.84384 6.05908ZM5.93884 14.0224H7.72551V8.64992H5.93884V14.0224Z" fill="white"/>
<path d="M4.99984 3.33329C4.55781 3.33329 4.13389 3.50889 3.82133 3.82145C3.50877 4.13401 3.33317 4.55793 3.33317 4.99996V15C3.33317 15.442 3.50877 15.8659 3.82133 16.1785C4.13389 16.491 4.55781 16.6666 4.99984 16.6666H14.9998C15.4419 16.6666 15.8658 16.491 16.1783 16.1785C16.4909 15.8659 16.6665 15.442 16.6665 15V4.99996C16.6665 4.55793 16.4909 4.13401 16.1783 3.82145C15.8658 3.50889 15.4419 3.33329 14.9998 3.33329H4.99984ZM4.99984 1.66663H14.9998C15.8839 1.66663 16.7317 2.01782 17.3569 2.64294C17.982 3.26806 18.3332 4.1159 18.3332 4.99996V15C18.3332 15.884 17.982 16.7319 17.3569 17.357C16.7317 17.9821 15.8839 18.3333 14.9998 18.3333H4.99984C4.11578 18.3333 3.26794 17.9821 2.64281 17.357C2.01769 16.7319 1.6665 15.884 1.6665 15V4.99996C1.6665 4.1159 2.01769 3.26806 2.64281 2.64294C3.26794 2.01782 4.11578 1.66663 4.99984 1.66663Z" fill="white"/>
</svg>
