<svg width="24" height="24" viewBox="0 0 24 24" fill="none" xmlns="http://www.w3.org/2000/svg">
<path d="M12 9C13.933 9 15.5 7.433 15.5 5.5C15.5 3.567 13.933 2 12 2C10.067 2 8.5 3.567 8.5 5.5C8.5 7.433 10.067 9 12 9Z" stroke="white" stroke-width="4" stroke-linecap="round" stroke-linejoin="round"/>
<path d="M2 20.5C2 16.0815 6.0295 12.5 11 12.5M15.925 14C14.862 14 14 15.0045 14 16.243C14 18.4865 16.275 20.5255 17.5 21C18.725 20.5255 21 18.4865 21 16.243C21 15.005 20.138 14 19.075 14C18.424 14 17.8485 14.3765 17.5 14.953C17.1515 14.3765 16.576 14 15.925 14Z" stroke="white" stroke-width="4" stroke-linecap="round" stroke-linejoin="round"/>
</svg>
