<svg width="31" height="31" viewBox="0 0 31 31" fill="none" xmlns="http://www.w3.org/2000/svg">
<path d="M12.9167 18.0833L27.125 3.875M12.9167 18.0833L17.4375 27.125C17.4942 27.2487 17.5852 27.3535 17.6996 27.4269C17.8141 27.5004 17.9473 27.5395 18.0833 27.5395C18.2194 27.5395 18.3525 27.5004 18.467 27.4269C18.5815 27.3535 18.6725 27.2487 18.7292 27.125L27.125 3.875M12.9167 18.0833L3.875 13.5625C3.75133 13.5058 3.64654 13.4148 3.57307 13.3004C3.4996 13.1859 3.46054 13.0527 3.46054 12.9167C3.46054 12.7806 3.4996 12.6475 3.57307 12.533C3.64654 12.4185 3.75133 12.3275 3.875 12.2708L27.125 3.875" stroke="white" stroke-width="2" stroke-linecap="round" stroke-linejoin="round"/>
</svg>
