<svg width="24" height="24" viewBox="0 0 24 24" fill="none" xmlns="http://www.w3.org/2000/svg">
<path d="M7 6.67015C5.934 6.67015 4.92 6.55015 4 6.33615C3.04 6.11115 2 6.80215 2 7.80915V18.8181C2 19.6261 2 20.0301 2.194 20.4471C2.304 20.6851 2.557 21.0081 2.759 21.1711C3.113 21.4581 3.409 21.5271 4 21.6651C4.92 21.8811 5.934 22.0001 7 22.0001C8.917 22.0001 10.668 21.6141 12 20.9781C13.332 20.3421 15.083 19.9561 17 19.9561C18.066 19.9561 19.08 20.0761 20 20.2911C20.96 20.5151 22 19.8241 22 18.8171V7.81015C22 7.00115 22 6.59715 21.806 6.18015C21.666 5.90469 21.4742 5.65886 21.241 5.45615C20 4.43915 18 5.44215 18 5.44215" stroke="white" stroke-width="1.5" stroke-linecap="round" stroke-linejoin="round"/>
<path d="M5.5 14.5V14.509M18.5 12.492V12.502M9.5 4.5C9.992 3.994 11.3 2 12 2M12 2C12.7 2 14.008 3.994 14.5 4.5M12 2V8M14.5 13.5C14.5 14.163 14.2366 14.7989 13.7678 15.2678C13.2989 15.7366 12.663 16 12 16C11.337 16 10.7011 15.7366 10.2322 15.2678C9.76339 14.7989 9.5 14.163 9.5 13.5C9.5 12.837 9.76339 12.2011 10.2322 11.7322C10.7011 11.2634 11.337 11 12 11C12.663 11 13.2989 11.2634 13.7678 11.7322C14.2366 12.2011 14.5 12.837 14.5 13.5Z" stroke="white" stroke-width="1.5" stroke-linecap="round" stroke-linejoin="round"/>
</svg>
