<svg width="24" height="24" viewBox="0 0 24 24" fill="none" xmlns="http://www.w3.org/2000/svg">
<path d="M7 6.6699C5.934 6.6699 4.92 6.5499 4 6.3359C3.04 6.1109 2 6.8019 2 7.8089V18.8179C2 19.6259 2 20.0299 2.194 20.4469C2.304 20.6849 2.557 21.0079 2.759 21.1709C3.113 21.4579 3.409 21.5269 4 21.6649C4.92 21.8809 5.934 21.9999 7 21.9999C8.917 21.9999 10.668 21.6139 12 20.9779C13.332 20.3419 15.083 19.9559 17 19.9559C18.066 19.9559 19.08 20.0759 20 20.2909C20.96 20.5149 22 19.8239 22 18.8169V7.8099C22 7.0009 22 6.5969 21.806 6.1799C21.666 5.90445 21.4742 5.65862 21.241 5.4559C20 4.4389 18 5.4419 18 5.4419" stroke="#141E46" stroke-width="1.5" stroke-linecap="round" stroke-linejoin="round"/>
<path d="M5.5 14.5V14.509M18.5 12.492V12.502M9.5 4.5C9.992 3.994 11.3 2 12 2M12 2C12.7 2 14.008 3.994 14.5 4.5M12 2V8M14.5 13.5C14.5 14.163 14.2366 14.7989 13.7678 15.2678C13.2989 15.7366 12.663 16 12 16C11.337 16 10.7011 15.7366 10.2322 15.2678C9.76339 14.7989 9.5 14.163 9.5 13.5C9.5 12.837 9.76339 12.2011 10.2322 11.7322C10.7011 11.2634 11.337 11 12 11C12.663 11 13.2989 11.2634 13.7678 11.7322C14.2366 12.2011 14.5 12.837 14.5 13.5Z" stroke="#141E46" stroke-width="1.5" stroke-linecap="round" stroke-linejoin="round"/>
</svg>
