<svg width="81" height="80" viewBox="0 0 81 80" fill="none" xmlns="http://www.w3.org/2000/svg">
<g clip-path="url(#clip0_145_2052)">
<path d="M40.415 -0.000223441C41.725 -0.000223441 43.015 0.0847766 44.215 0.284777C45.3973 0.437072 46.5636 0.694764 47.7 1.05478C48.8333 1.39478 49.9566 1.83311 51.07 2.36978C52.155 2.88478 53.27 3.51478 54.385 4.19978C56.27 5.39978 58.125 6.36978 60.015 7.14478C63.7347 8.63698 67.6696 9.52323 71.67 9.76978C73.6933 9.91978 75.7883 9.99644 77.955 9.99978V29.9998C77.955 33.7964 77.47 37.4064 76.5 40.8298C75.568 44.2108 74.244 47.4712 72.555 50.5448C70.8732 53.6142 68.8829 56.5041 66.615 59.1698C64.3137 61.8973 61.8207 64.4572 59.155 66.8298C56.4517 69.2064 53.6082 71.4187 50.64 73.4548C47.6666 75.5214 44.6766 77.4264 41.67 79.1698L40.47 79.8848L39.27 79.1698C36.1857 77.3847 33.1734 75.4782 30.24 73.4548C27.2558 71.4406 24.411 69.2272 21.725 66.8298C19.0609 64.457 16.5696 61.8972 14.27 59.1698C12.0097 56.4915 10.0106 53.6034 8.29997 50.5448C6.64127 47.4569 5.3187 44.1999 4.35497 40.8298C3.38528 37.3022 2.90412 33.6582 2.92497 29.9998V9.99978C5.09163 9.99644 7.1883 9.91978 9.21497 9.76978C11.2136 9.63392 13.1992 9.34811 15.155 8.91478C17.07 8.48478 18.985 7.91478 20.87 7.14478C22.8255 6.35431 24.7007 5.37818 26.47 4.22978C28.67 2.79978 30.9 1.74478 33.1 1.04978C35.4695 0.324224 37.937 -0.0299741 40.415 -0.000223441ZM72.925 14.9148C69.1403 14.7295 65.3908 14.0968 61.755 13.0298C58.1396 11.9485 54.6955 10.3611 51.525 8.31478C49.88 7.23781 48.095 6.39159 46.22 5.79978C44.3459 5.23457 42.3974 4.95477 40.44 4.96978C38.468 4.95776 36.5051 5.23745 34.615 5.79978C32.7378 6.37395 30.9553 7.22137 29.325 8.31478C26.1478 10.3702 22.6951 11.9645 19.07 13.0498C15.5266 14.0798 11.8116 14.7098 7.92497 14.9398V30.0248C7.92497 33.3348 8.35497 36.5148 9.21497 39.5648C10.0919 42.593 11.2991 45.5155 12.815 48.2798C14.3496 51.0725 16.1585 53.7055 18.215 56.1398C20.3 58.5948 22.525 60.8798 24.925 63.0498C27.325 65.2198 29.84 67.2298 32.47 69.0798C35.1266 70.9331 37.7833 72.6281 40.44 74.1648C43.1598 72.5842 45.8106 70.8876 48.385 69.0798C51.0355 67.2348 53.5641 65.2207 55.955 63.0498C58.355 60.8798 60.585 58.5948 62.67 56.1398C64.7264 53.7055 66.5353 51.0725 68.07 48.2798C69.5782 45.5186 70.7675 42.5948 71.615 39.5648C72.502 36.463 72.9431 33.2508 72.925 30.0248V14.9148Z" fill="#333333"/>
<path fill-rule="evenodd" clip-rule="evenodd" d="M59.0549 23.5448L56.8549 21.6548L54.8249 21.8298L33.0249 47.5698L25.5999 36.9698L23.5999 36.6298L21.2849 38.2848L20.9399 40.2848L30.4849 53.9148L31.5699 54.5148L33.8549 54.6548L35.0249 54.1448L59.1999 25.5698L59.0549 23.5448Z" fill="#333333"/>
</g>
<defs>
<clipPath id="clip0_145_2052">
<rect width="80" height="80" fill="white" transform="translate(0.5)"/>
</clipPath>
</defs>
</svg>
