<svg width="49" height="49" viewBox="0 0 49 49" fill="none" xmlns="http://www.w3.org/2000/svg">
<path d="M11.7166 10.0234C10.1253 10.0234 8.59913 10.6556 7.47391 11.7808C6.34869 12.906 5.71655 14.4321 5.71655 16.0234V32.8235C5.71655 34.4148 6.34869 35.9409 7.47391 37.0661C8.59913 38.1913 10.1253 38.8235 11.7166 38.8235H38.1166C39.7079 38.8235 41.234 38.1913 42.3592 37.0661C43.4844 35.9409 44.1166 34.4148 44.1166 32.8235V16.0234C44.1166 14.4321 43.4844 12.906 42.3592 11.7808C41.234 10.6556 39.7079 10.0234 38.1166 10.0234H11.7166ZM8.11655 16.0234C8.11655 15.0687 8.49584 14.153 9.17097 13.4779C9.8461 12.8027 10.7618 12.4234 11.7166 12.4234H38.1166C39.0714 12.4234 39.987 12.8027 40.6622 13.4779C41.3373 14.153 41.7166 15.0687 41.7166 16.0234V32.8235C41.7166 33.7782 41.3373 34.6939 40.6622 35.369C39.987 36.0442 39.0714 36.4235 38.1166 36.4235H11.7166C10.7618 36.4235 9.8461 36.0442 9.17097 35.369C8.49584 34.6939 8.11655 33.7782 8.11655 32.8235V16.0234ZM11.7166 14.8234C11.3983 14.8234 11.0931 14.9499 10.868 15.1749C10.643 15.4 10.5166 15.7052 10.5166 16.0234C10.5166 16.3417 10.643 16.6469 10.868 16.872C11.0931 17.097 11.3983 17.2234 11.7166 17.2234H23.7166C24.0348 17.2234 24.3401 17.097 24.5651 16.872C24.7901 16.6469 24.9166 16.3417 24.9166 16.0234C24.9166 15.7052 24.7901 15.4 24.5651 15.1749C24.3401 14.9499 24.0348 14.8234 23.7166 14.8234H11.7166ZM11.7166 19.6234C11.3983 19.6234 11.0931 19.7499 10.868 19.9749C10.643 20.2 10.5166 20.5052 10.5166 20.8234C10.5166 21.1417 10.643 21.4469 10.868 21.672C11.0931 21.897 11.3983 22.0234 11.7166 22.0234H30.9166C31.2348 22.0234 31.5401 21.897 31.7651 21.672C31.9901 21.4469 32.1166 21.1417 32.1166 20.8234C32.1166 20.5052 31.9901 20.2 31.7651 19.9749C31.5401 19.7499 31.2348 19.6234 30.9166 19.6234H11.7166ZM12.9166 26.8234C12.28 26.8234 11.6696 27.0763 11.2195 27.5264C10.7694 27.9765 10.5166 28.5869 10.5166 29.2234V31.6235C10.5166 32.26 10.7694 32.8704 11.2195 33.3205C11.6696 33.7706 12.28 34.0235 12.9166 34.0235H22.5166C23.1531 34.0235 23.7635 33.7706 24.2136 33.3205C24.6637 32.8704 24.9166 32.26 24.9166 31.6235V29.2234C24.9166 28.5869 24.6637 27.9765 24.2136 27.5264C23.7635 27.0763 23.1531 26.8234 22.5166 26.8234H12.9166Z" fill="black"/>
</svg>
